<svg xmlns="http://www.w3.org/2000/svg" viewBox="0 9.5 118.5 36" data-asc="0.9" width="118.5" height="36"><defs/><g fill="#000000"><g transform="translate(0, 0)"><path d="M0 10L6.90 10L12.25 30.95L12.35 30.95L12.35 10L17.25 10L17.25 45L11.60 45L5 19.45L4.90 19.45L4.90 45L0 45L0 10ZM21.35 10L36.35 10L36.35 15L26.85 15L26.85 24.25L34.40 24.25L34.40 29.25L26.85 29.25L26.85 40L36.35 40L36.35 45L21.35 45L21.35 10ZM39.50 10L46.40 10L51.75 30.95L51.85 30.95L51.85 10L56.75 10L56.75 45L51.10 45L44.50 19.45L44.40 19.45L44.40 45L39.50 45L39.50 10ZM68.65 45.50Q64.65 45.50 62.55 43.23Q60.45 40.95 60.45 36.70L60.45 18.30Q60.45 14.05 62.55 11.77Q64.65 9.50 68.65 9.50Q72.65 9.50 74.75 11.77Q76.85 14.05 76.85 18.30L76.85 21.30L71.65 21.30L71.65 17.95Q71.65 14.50 68.80 14.50Q65.95 14.50 65.95 17.95L65.95 37.10Q65.95 40.50 68.80 40.50Q71.65 40.50 71.65 37.10L71.65 30.25L68.90 30.25L68.90 25.25L76.85 25.25L76.85 36.70Q76.85 40.95 74.75 43.23Q72.65 45.50 68.65 45.50ZM88.35 45.50Q84.30 45.50 82.15 43.20Q80.00 40.90 80.00 36.70L80.00 18.30Q80.00 14.10 82.15 11.80Q84.30 9.50 88.35 9.50Q92.40 9.50 94.55 11.80Q96.70 14.10 96.70 18.30L96.70 36.70Q96.70 40.90 94.55 43.20Q92.40 45.50 88.35 45.50M88.35 40.50Q91.20 40.50 91.20 37.05L91.20 17.95Q91.20 14.50 88.35 14.50Q85.50 14.50 85.50 17.95L85.50 37.05Q85.50 40.50 88.35 40.50ZM100.40 10L105.90 10L105.90 24.75L112.90 10L118.40 10L111.85 22.85L118.50 45L112.75 45L108.10 29.40L105.90 33.85L105.90 45L100.40 45L100.40 10Z"/></g></g></svg>